# xmcd CD database file
#
# Track frame offsets:
#	150
#	22087
#	56522
#	86055
#	117765
#	139605
#	174252
#	204790
#	239915
#
# Disc length: 3644 seconds
#
# Revision: 0
# Processed by: cddbd v1.5.2PL0 Copyright (c) Steve Scherf et al.
# Submitted via: CDex 1.51
#
DISCID=750e3a09
DTITLE=Randy Halberstadt - Inner Voice
DYEAR=1991
DGENRE=Jazz
TTITLE0=Bad Bud
TTITLE1=Christine
TTITLE2=In The Pocket
TTITLE3=Feast
TTITLE4=Monk Business
TTITLE5=Humming
TTITLE6=Beautiful Love
TTITLE7=Guerrero Viejo
TTITLE8=Inner Voice
EXTD=YEAR: 1991
EXTT0=
EXTT1=
EXTT2=
EXTT3=
EXTT4=
EXTT5=
EXTT6=
EXTT7=
EXTT8=
PLAYORDER=
